<?xml version="1.0" standalone="no"?>
<!DOCTYPE svg PUBLIC "-//W3C//DTD SVG 1.1//EN" "http://www.w3.org/Graphics/SVG/1.1/DTD/svg11.dtd" >
<svg xmlns="http://www.w3.org/2000/svg" xmlns:svg="http://www.w3.org/2000/svg" xmlns:xlink="http://www.w3.org/1999/xlink" viewBox="0 0 512 512"><path d="M76.64 227.18Q61.36 387.69 72.61 399.09Q75.48 456.68 -14.46 480.52Q-7.34 491.67 61.26 489Q129.19 390.9 102.56 278.06Q110.84 212.25 156.8 309.63ZM268.88 31.68Q323.27 89.12 311.06 166.14V179.91Q235.29 130.93 312.87 184.97Q297.3 60.94 320.46 51.69Q372.59 200.27 333.82 190.58Q255.48 261.19 323.32 234.57Q332.4 217.25 296.37 114.65Q263.64 83.73 305.56 120.01Q229.91 179.91 227.35 192.11Q207.83 235.22 260.19 198.06Q208.45 110.9 210.12 115.92Q232.62 155.89 269.93 131.62Q248.97 202.69 262.36 151.79Q167.87 194.24 133 217.02L119.64 190.76Q127.03 261.55 17.76 197.68Q76.17 249.86 56.14 255.16Q57.13 242.34 157.9 301.46Q53.08 247.67 75.3 201.74Q125.09 229.96 211.04 211.59Q250.95 223.94 246.1 367.41Q180.2 320.02 176.88 340.6Q245.66 338.71 260.93 351.59Q288.6 391.33 345.24 432.04Q262.79 350.64 264.78 379.19Q239.42 439.18 270.88 412.69Q323.58 455.73 346.8 487.78Q371.77 408.21 353.49 407.82Q345.67 404.54 328.24 365.99Q351.45 353.92 371.59 268.25Q381.09 259.92 301.75 240.71Q406.87 316.7 299.2 246.82Q323.75 331.39 280.35 233.57Q296.07 279.5 317.55 216.49Q388.67 161.71 450.84 232.41Q371.75 188.42 378.3 146.33Q357.31 221.18 336.56 218.02Q362.78 78.48 378.89 54.14Q300 118.9 273.93 16.02ZM243.45 281.03Q241.81 197.82 296.32 331.75Q243.04 254.09 355.65 226.77L332.21 289.35Q263.65 348.64 294.47 285.14Q252.5 276.8 294.85 338.14Q262.35 252.38 225.53 340.32Q273.2 251.08 272.75 215.72Q295.27 239.29 212.61 231.03ZM251.92 171.25Q312.32 200.79 272.2 225.87Q357.54 262.13 252.36 228.75Q245.67 282.57 265.96 188.9Q268.88 255.64 358.08 226.65ZM-4.13 110.48Q41.41 96.65 119.94 160.51Q46.21 144.31 130.83 108.23Q136.71 180.08 51.35 190.41Q142.18 178.91 126.37 177.04Q99.94 79.76 85.91 41.95Q98.51 23.77 78.58 60.78Q49.51 31.03 26.22 31.36ZM229.8 33.17Q153.06 50.39 221.51 66.57Q214.29 -41.86 261.66 34.01Q196.44 1.75 186.41 14.96Q216.01 35.07 138.12 -13.48Q242.96 111.81 200.04 104.41Q118.96 116.33 88.56 123.72Q109.56 236.58 195.4 150.58Q171.6 165.39 158.62 198.04Q130.33 93.93 140.83 150.14Q227.97 80.89 209.96 35.38Q334.32 23.77 385.95 0.84Q354.6 -36.93 342.6 25.32Q384.8 27.02 324.05 38.54Q407.42 -43.84 361.29 -44.34Q222.18 33.76 160.96 84.72Z" fill="black"></path></svg>