<?xml version="1.0" standalone="no"?>
<!DOCTYPE svg PUBLIC "-//W3C//DTD SVG 1.1//EN" "http://www.w3.org/Graphics/SVG/1.1/DTD/svg11.dtd" >
<svg xmlns="http://www.w3.org/2000/svg" xmlns:svg="http://www.w3.org/2000/svg" xmlns:xlink="http://www.w3.org/1999/xlink" viewBox="0 0 512 512"><path d="M144.0 314.0Q99.0 377.0 63.0 444.0Q61.0 455.0 59.0 467.0Q62.0 478.0 75.0 479.0Q120.0 397.0 162.0 314.0Q152.0 309.0 144.0 314.0ZM364.0 114.0Q325.0 133.0 295.0 161.0V170.0Q300.0 175.0 311.0 174.0Q333.0 151.0 359.0 151.0Q355.0 193.0 350.0 236.0Q336.0 245.0 319.0 243.0Q318.0 211.0 303.0 185.0Q291.0 179.0 286.0 192.0Q295.0 215.0 301.0 240.0Q285.0 253.0 267.0 244.0Q275.0 205.0 275.0 165.0Q269.0 154.0 257.0 157.0Q255.0 202.0 246.0 251.0Q201.0 256.0 156.0 253.0L144.0 261.0Q117.0 246.0 86.0 246.0Q74.0 255.0 82.0 268.0Q112.0 275.0 140.0 288.0Q148.0 284.0 155.0 279.0Q197.0 279.0 236.0 272.0Q236.0 309.0 227.0 351.0Q241.0 368.0 264.0 373.0Q301.0 376.0 334.0 364.0Q339.0 393.0 336.0 427.0Q332.0 437.0 322.0 443.0Q315.0 464.0 329.0 483.0Q338.0 490.0 351.0 491.0Q356.0 486.0 359.0 479.0Q350.0 415.0 362.0 353.0Q374.0 345.0 387.0 336.0Q394.0 326.0 395.0 314.0Q391.0 307.0 384.0 307.0Q371.0 320.0 359.0 324.0Q360.0 289.0 366.0 258.0Q404.0 247.0 446.0 249.0Q453.0 236.0 447.0 224.0Q411.0 226.0 371.0 232.0Q380.0 174.0 382.0 115.0Q373.0 111.0 364.0 114.0ZM296.0 263.0Q315.0 286.0 318.0 318.0Q330.0 321.0 342.0 320.0L343.0 335.0Q338.0 342.0 330.0 346.0Q306.0 352.0 280.0 351.0Q262.0 347.0 250.0 335.0Q255.0 303.0 259.0 272.0Q277.0 267.0 296.0 263.0ZM343.0 260.0Q347.0 266.0 349.0 272.0Q346.0 288.0 339.0 301.0Q328.0 284.0 319.0 267.0Q327.0 256.0 343.0 260.0ZM82.0 106.0Q103.0 131.0 122.0 156.0Q120.0 171.0 131.0 182.0Q138.0 183.0 146.0 180.0Q150.0 172.0 149.0 163.0Q143.0 141.0 133.0 122.0Q116.0 101.0 97.0 91.0Q85.0 93.0 82.0 106.0ZM251.0 103.0Q253.0 78.0 258.0 53.0Q254.0 37.0 243.0 26.0Q229.0 25.0 224.0 38.0Q224.0 50.0 230.0 62.0Q230.0 99.0 222.0 135.0Q199.0 174.0 182.0 215.0Q186.0 219.0 190.0 222.0Q199.0 221.0 207.0 216.0Q215.0 190.0 226.0 166.0Q242.0 143.0 265.0 122.0Q315.0 93.0 366.0 63.0Q390.0 58.0 413.0 47.0Q420.0 37.0 413.0 27.0Q404.0 21.0 393.0 23.0Q322.0 64.0 251.0 103.0Z" fill="black"></path></svg>